{"accessors" : [{"bufferView" : 0, "byteOffset" : 0, "componentType" : 5123, "count" : 10428, "type" : "SCALAR", "max" : [8605], "min" : [0]}, {"bufferView" : 1, "byteOffset" : 0, "componentType" : 5126, "count" : 8606, "type" : "VEC3", "max" : [0.06691775470972061, 0.31881260871887207, 0.1913464516401291], "min" : [-0.0669177770614624, -0.010241985321044922, -0.3054990768432617], "name" : "POSITION"}, {"bufferView" : 1, "byteOffset" : 12, "componentType" : 5126, "count" : 8606, "type" : "VEC3", "max" : [0.9998997449874878, 0.99986332654953, 0.9999798536300659], "min" : [-0.9998997449874878, -0.9999132752418518, -0.9988970160484314], "name" : "NORMAL"}, {"bufferView" : 1, "byteOffset" : 24, "componentType" : 5126, "count" : 8606, "type" : "VEC2", "max" : [0.9921875, 1.9921875], "min" : [0.0078125, 1.0109431743621826], "name" : "TEXCOORD_0"}], "asset" : {"generator" : "Aspose.3D 24.1.0", "version" : "2.0"}, "buffers" : [{"uri" : "data:application/octet-stream;base64,", "byteLength" : 354560}], "bufferViews" : [{"buffer" : 0, "byteOffset" : 0, "byteLength" : 20856, "target" : 34963}, {"buffer" : 0, "byteOffset" : 20860, "byteLength" : 333696, "byteStride" : 32, "target" : 34962}], "images" : [{"uri" : "data:image/png;base64,"}], "materials" : [{"name" : "texturechat", "pbrMetallicRoughness" : {"baseColorFactor" : [1, 1, 1, 1], "baseColorTexture" : {"index" : 0, "texCoord" : 0}, "metallicFactor" : 0, "roughnessFactor" : 0.5}, "emissiveFactor" : [0, 0, 0], "alphaMode" : "OPAQUE", "doubleSided" : true}], "meshes" : [{"primitives" : [{"attributes" : {"POSITION" : 1, "NORMAL" : 2, "TEXCOORD_0" : 3}, "indices" : 0, "material" : 0, "mode" : 4}]}], "nodes" : [{"mesh" : 0, "name" : "Cube"}, {"children" : [0], "name" : "rig"}], "samplers" : [{"magFilter" : 9729, "minFilter" : 9987, "wrapS" : 10497, "wrapT" : 10497}], "scene" : 0, "scenes" : [{"nodes" : [1]}], "textures" : [{"sampler" : 0, "source" : 0, "name" : ""}]}